PathFileType	4	(X/Y/Z)	OpenSim_Sub07_CSBaseline_Gyro.trc
DataRate	CameraRate	NumFrames	NumMarkers	Units	OrigDataRate	OrigDataStartFrame	OrigNumFrames
100	100	27	8	m	100	1	7788
Frame#	Time	torso_imu_offset_imu	pelvis_imu_offset_imu	tibia_r_imu_offset_imu	femur_r_imu_offset_imu	tibia_l_imu_offset_imu	femur_l_imu_offset_imu	toes_r_imu_offset_imu	toes_l_imu_offset_imu
				X1	Y1	Z1	X2	Y2	Z2	X3	Y3	Z3	X4	Y4	Z4	X5	Y5	Z5	X6	Y6	Z6	X7	Y7	Z7	X8		Y8	Z8	

1	0	0.02214754	-0.02779193	0.00179698	0.00328601	-0.00971834	0.00177888	0.01229184	0.01529428	0.00372355	-0.00226057	-0.00489230	0.01751556	-0.00883408	-0.00218751	-0.00722390	-0.00711547	-0.00808512	-0.01675934	0.00620850	0.00723981	-0.00263638	0.00044984	0.01038558	0.00031019
2	0.01000000	0.01925166	-0.02751240	-0.00379416	0.00737775	-0.00900135	0.00358424	0.01564499	0.01512837	0.00169172	-0.00115566	0.00455335	0.01412994	-0.01283573	-0.00859181	-0.01060562	-0.00588877	-0.00517816	-0.01351193	0.00208685	0.00765080	0.00122138	-0.00293049	0.01568809	-0.00025581
3	0.02000000	0.01799352	-0.02853999	-0.00390882	0.00876527	-0.00612186	0.00259918	0.01151302	0.01455972	-0.00033716	-0.00142375	0.01693066	0.01369982	0.00037334	-0.00626306	-0.01008165	-0.00547399	-0.00632191	-0.01484241	0.00119128	0.00855947	-0.00000993	-0.00251316	0.01266393	-0.00051415
4	0.03000000	0.01646660	-0.03335718	-0.00096881	0.00699206	-0.00963506	0.00474201	0.00473869	0.01325343	0.00115143	0.00572604	0.02370468	0.01043484	0.01275219	0.00335440	-0.00748808	-0.00792095	-0.00422615	-0.01354131	0.00436672	0.00980891	0.00126590	-0.00105995	0.01354090	-0.00100840
5	0.04000000	0.01664660	-0.03506780	-0.00027817	0.01001008	-0.00623241	0.00527586	0.00159080	0.01275304	0.00434216	0.01100317	0.02200811	0.01229121	0.01813028	0.00289088	-0.00496614	-0.01509467	-0.00060373	-0.01180632	0.00226230	0.00883918	0.00100870	-0.00094785	0.01571133	0.00068116
6	0.05000000	0.01674828	-0.03325422	0.00067966	0.01340321	0.00074688	0.00048981	0.00847642	0.01232360	0.00616418	0.00915778	0.00589587	0.01136012	0.01902869	0.00692626	-0.00377075	-0.01471148	-0.00290796	-0.01088830	-0.00081702	0.01011222	-0.00269963	-0.00460610	0.01516726	0.00104910
7	0.06000000	0.01415492	-0.03548829	0.00062509	0.01026763	0.00014182	0.00329512	0.01172877	0.01056805	0.00474233	-0.00418128	-0.00126995	0.01114745	0.02163095	0.00417552	-0.01127180	-0.00506312	-0.00786746	-0.01549304	0.00452614	0.01086615	0.00107854	-0.00030857	0.01534313	0.00173789
8	0.07000000	0.02024123	-0.03534469	0.00502058	0.00759753	-0.00061504	-0.00050699	0.00892694	0.01040320	0.00032139	-0.01056535	0.00266065	0.00795634	0.02570047	0.00466011	-0.01332280	-0.00072135	-0.00573339	-0.01224028	0.00311053	0.01365294	0.00166498	-0.00649453	0.01916513	-0.00264807
9	0.08000000	0.02074776	-0.04643785	0.01106867	0.01058871	-0.00402728	-0.00351127	0.01118118	0.01612076	0.00286566	-0.01122360	0.01348167	0.00838116	0.02421544	0.00811514	-0.00996602	-0.00965204	-0.00434167	-0.00947315	0.00214522	0.01311608	0.00055051	-0.00133759	0.01813155	0.00069973
10	0.09000000	0.01856062	-0.04699010	0.00785834	0.00896030	-0.00128464	-0.00283497	0.00869415	0.01227556	0.00313258	-0.00673303	0.01235738	0.00614237	0.02423106	0.00358932	-0.01050487	-0.00675575	-0.01090999	-0.01089916	0.00455747	0.01343501	-0.00100082	-0.00351389	0.02003464	-0.00289525
11	0.10000000	0.01352975	-0.04441280	0.00710279	0.01079656	0.00114052	-0.00464353	0.01083958	0.01266737	0.00369426	-0.01321808	0.00577601	0.01072911	0.02485532	0.00667511	-0.00707450	-0.01223640	-0.00748779	-0.01521829	0.00357063	0.01539245	-0.00114386	-0.00416944	0.01893051	-0.00251346
12	0.11000000	0.01092560	-0.04110185	0.00469913	0.01152220	0.00026807	-0.00591211	0.00560931	0.01176752	0.00262251	-0.01954854	-0.00205945	0.01111743	0.02921339	0.00109527	-0.01102811	-0.02318676	-0.00774944	-0.01293569	0.00484151	0.01431030	0.00013717	-0.00047768	0.01706424	-0.00252382
13	0.12000000	0.00721306	-0.04102219	0.00209106	0.01193658	0.00467892	-0.00568925	0.00322362	0.00941267	0.00006053	-0.03228390	-0.00864736	0.01304265	0.02455049	-0.01005744	-0.00813691	-0.02161999	-0.00564980	-0.01015063	0.00657489	0.01369398	0.00070722	-0.00700479	0.01653865	-0.00289395
14	0.13000000	0.00514068	-0.03614362	0.00040799	0.01138087	0.00689576	-0.00505186	-0.00276431	0.00959586	-0.00320911	-0.02873368	-0.00310514	0.01623296	0.00547270	-0.00550017	-0.00612885	-0.00880738	-0.00182756	-0.00929652	0.00465589	0.02107188	-0.00156224	0.00009261	0.01794854	0.00062682
15	0.14000000	0.01605852	-0.03924932	0.00021513	0.00205886	0.00796008	-0.00601610	-0.00323233	0.01080485	-0.01262307	-0.01213406	0.00799127	0.01959385	0.00742889	-0.00437281	-0.01312341	-0.00150643	0.00205130	-0.00919338	0.00235800	0.02269779	0.00310338	-0.00303015	0.01299494	-0.00060231
16	0.15000000	0.01621412	-0.04356508	-0.00029599	0.00243235	0.01379226	-0.00493254	-0.00055429	0.00962524	-0.00929963	-0.01613861	0.01188546	0.01994655	0.01373259	-0.00198332	-0.00887915	-0.00764238	-0.00097773	-0.01581816	0.00766362	0.02291943	-0.00573540	-0.00865426	0.01481272	-0.00145901
17	0.16000000	0.01092626	-0.03272352	0.00291347	-0.00109480	0.01943909	-0.00745967	0.00116234	0.00291883	-0.00799082	-0.02991841	0.00414661	0.02226311	0.01090459	-0.00532370	-0.01000896	-0.00477843	-0.00491043	-0.01569126	0.00442851	0.02450559	-0.00355822	-0.00068363	0.01746214	-0.00334889
18	0.17000000	0.00810801	-0.02872778	0.00662953	0.00011343	0.02043547	-0.00984623	0.00673744	0.01006124	-0.02220074	-0.02805371	-0.00793049	0.03686235	0.01465152	0.00531319	-0.00883699	-0.00228692	-0.00127731	-0.01600128	0.00670414	0.02302985	-0.00648201	-0.00158730	0.01790313	-0.00319985
19	0.18000000	0.00069204	-0.02446800	0.00985933	0.00033189	0.02205900	-0.00796574	0.00478114	0.01039830	-0.02016617	-0.00821826	-0.01831246	0.03808551	0.00814584	0.00901007	-0.00988118	-0.00102514	0.00070835	-0.01665097	0.00583311	0.02368188	-0.00388332	-0.00280573	0.01528046	-0.00295710
20	0.19000000	-0.00214840	-0.01678502	0.00373000	-0.00593483	0.02285539	-0.00774237	0.00429981	0.00884448	-0.02044469	-0.00345680	-0.01563268	0.04083888	0.00099467	0.00615067	-0.01316424	0.00151915	-0.00214096	-0.01760783	0.00423471	0.02006702	-0.00620169	-0.00263865	0.01780689	-0.00496007
21	0.20000000	-0.00277758	-0.01336606	-0.00015758	-0.00836667	0.02177036	-0.00852791	0.00796992	0.00483966	-0.02229597	-0.00852284	-0.01176010	0.04870730	0.00693549	0.00270804	-0.01118023	0.00591517	-0.00137844	-0.01877049	0.00349661	0.01583877	-0.00745766	-0.00499603	0.01860902	-0.00209166
22	0.21000000	-0.00049784	-0.00993281	-0.00308556	-0.00864424	0.01705813	-0.00824325	0.00969600	0.00713284	-0.02544912	-0.01782513	-0.00592878	0.05091071	0.01109391	0.00495737	-0.01069290	0.00962498	-0.00041723	-0.01881342	0.00241934	0.01395697	-0.00452090	-0.00501784	0.01702355	-0.00126495
23	0.22000000	0.00091987	-0.01174877	-0.00067648	-0.00538544	0.01763719	-0.00464092	0.01415525	0.00936683	-0.01628088	-0.02060887	-0.00217692	0.04636145	0.02786602	0.00603662	-0.01404596	0.00479390	-0.00264522	-0.01105953	0.00459322	0.01293441	-0.00875259	-0.00342543	0.01635452	-0.00185339
24	0.23000000	-0.00498963	-0.01240202	0.00127201	0.00258349	0.01428627	-0.00615506	0.02186302	0.00597393	-0.02083045	-0.02021115	-0.00079159	0.04319685	0.05489441	0.00559424	-0.00923570	-0.00086631	-0.00024338	-0.01299260	0.00303484	0.01510048	-0.00649478	-0.00030145	0.01918122	-0.00354913
25	0.24000000	-0.00692885	-0.01971905	0.00317552	0.01044579	0.01378726	-0.00963608	0.01210591	0.00581525	-0.02037405	-0.01684877	-0.00993860	0.03324736	0.06166095	0.01037178	-0.01018539	0.00410015	0.00044359	-0.00947380	0.00832406	0.01408239	-0.00927503	-0.00358768	0.01494854	-0.00555680
26	0.25000000	-0.00734411	-0.02273466	-0.00044319	0.01755680	0.02012503	-0.00902003	-0.00372592	0.01082901	-0.01247757	-0.00450076	-0.01203389	0.02320739	0.05335010	0.01493340	-0.01277397	0.01269950	0.00177350	-0.00975153	0.00450621	0.01379509	-0.00423458	-0.00077799	0.01971191	-0.00384600
27	0.26000000	-0.00909410	-0.02669791	0.00110400	0.02247361	0.02075614	-0.00878271	0.00222206	0.01305415	-0.00765064	-0.00590916	-0.00471624	0.01502984	0.02756937	0.00652529	-0.01350205	0.02004054	0.00342643	-0.01239235	0.00248754	0.01740368	-0.00166742	-0.00227543	0.01902968	-0.00622982
